<svg width="90" height="90" xmlns="http://www.w3.org/2000/svg">
 <!-- Created with Method Draw - http://github.com/duopixel/Method-Draw/ -->

 <g>
  <title>background</title>
  <rect fill="none" id="canvas_background" height="92" width="92" y="-1" x="-1"/>
  <g display="none" id="canvasGrid">
   <rect fill="url(#gridpattern)" stroke-width="0" y="0" x="0" height="100%" width="100%" id="svg_1"/>
  </g>
 </g>
 <g>
  <title>Layer 1</title>
  <path stroke="null" fill="#fff" d="m89.344519,17.370471c-0.507928,-0.782308 -1.33434,-1.266872 -2.229391,-1.30482l-55.564549,-2.54542c-1.595168,-0.072977 -2.926762,1.234762 -2.995401,2.921979c-0.068639,1.687217 1.16137,3.108799 2.748301,3.184695l51.800393,2.370277l-10.183265,33.78812l-45.329119,0l-8.187246,-47.405536c-0.178461,-1.036266 -0.851122,-1.903227 -1.773629,-2.291462l-13.412038,-5.601676c-1.479854,-0.613003 -3.146406,0.157629 -3.728464,1.728084s0.145514,3.345243 1.622623,3.961165l11.923947,4.979917l8.335506,48.237468c0.252591,1.450773 1.438671,2.501634 2.827922,2.501634l1.38376,0l-3.157389,9.320559c-0.263573,0.782308 -0.156497,1.649269 0.29652,2.32941c0.447526,0.677222 1.177843,1.080052 1.957581,1.080052l2.215663,0c-1.372778,1.622997 -2.215663,3.759749 -2.215663,6.109593c0,5.055812 3.868487,9.168768 8.621044,9.168768c4.755302,0 8.623789,-4.110037 8.623789,-9.168768c0,-2.349843 -0.842885,-4.486595 -2.215663,-6.109593l18.798817,0c-1.372778,1.622997 -2.212918,3.759749 -2.212918,6.109593c0,5.055812 3.862996,9.168768 8.621044,9.168768c4.752556,0 8.621044,-4.110037 8.621044,-9.168768c0,-2.349843 -0.842885,-4.486595 -2.212918,-6.109593l2.690644,0c1.323358,0 2.394124,-1.141352 2.394124,-2.54542s-1.070767,-2.548339 -2.394124,-2.548339l-45.930395,0l2.586313,-7.63918l43.341337,0c1.249228,0 2.352941,-0.858204 2.734573,-2.122157l11.976112,-39.72257c0.277301,-0.90199 0.137278,-1.89447 -0.378887,-2.676778zm-55.045639,67.441964c-2.111332,0 -3.83005,-1.827332 -3.83005,-4.075008s1.718718,-4.075008 3.83005,-4.075008c2.114078,0 3.832795,1.827332 3.832795,4.075008s-1.718718,4.075008 -3.832795,4.075008zm31.61507,0c-2.116823,0 -3.832795,1.827332 -3.832795,-4.075008s1.718718,-4.075008 3.832795,-4.075008c2.114078,0 3.832795,1.827332 3.832795,4.075008s-1.721463,4.075008 -3.832795,4.075008z" id="svg_2"/>
 </g>
</svg>